<?xml version="1.0" encoding="UTF-8"?>
<svg id="Layer_1" data-name="Layer 1" xmlns="http://www.w3.org/2000/svg" viewBox="0 0 519 519">
  <defs>
    <linearGradient id="steelGrad" x1="49.01" y1="49.01" x2="469.99" y2="469.99" gradientUnits="userSpaceOnUse">
      <stop offset="0" stop-color="#9CA3AF"/>
      <stop offset="0.5" stop-color="#6B7280"/>
      <stop offset="1" stop-color="#4B5563"/>
    </linearGradient>
  </defs>
  <rect x="49.01" y="49.01" width="420.99" height="420.99" rx="109.44" ry="109.44" fill="url(#steelGrad)"/>
  <g fill="#fff">
    <polyline points="130.75 248.57 130.75 248.57 369.77 248.56 369.8 283.2 130.76 283.2 130.76 284.17"/>
    <polygon points="411.32 265.59 342.08 172.74 287.58 172.82 360.25 266.16 287.18 359.83 340.84 359.91 411.32 265.59"/>
    <path d="M198.94,208.97c-32.11.15-55.56,26.95-55.75,56.59-.2,30.94,22.31,55.77,53.93,58.28l68.58.05.04,36.14-70.14.02c-43.48-2.45-79.51-33.4-88.24-76.11-11.74-57.42,34.26-111.14,90.94-111.26l67.38-.2.11,36.06-66.85.43Z"/>
  </g>
</svg>
